# xmcd
#
# Track frame offsets: 
#        150
#        21055
#        40846
#        57648
#        75280
#        95263
#        112736
#        129284
#        147441
#        166234
#        186176
#        201580
#        218040
#        233981
#        249118
#        266081
#        285260
#        300554
#        320622
#        334574
#
# Disc length: 4723 seconds
#
# Revision: 0
# Processed by: cddbd v1.5.1PL2 Copyright (c) Steve Scherf et al.
# Submitted via: ExactAudioCopy v0.95b3
#
DISCID=0e127114
DTITLE=Various Artist - Christmas No 1s and Festive Hits
DYEAR=2003
DGENRE=Holiday
TTITLE0=Wizzard - I Wish It Could Be Christmas Everyday
TTITLE1=Elton John - Step Into Christmas
TTITLE2=Band Aid - Do They Know It's Christmas?
TTITLE3=Spice Girls - 2 Become 1
TTITLE4=East 17 - Stay Another Day
TTITLE5=Chris Rea - Driving Home For Christmas
TTITLE6=Johnny Mathis - When A Child Is Born
TTITLE7=Chris De Burgh - A Spaceman Came Travelling
TTITLE8=David Essex - A Winter Tale
TTITLE9=The Pogues featuring Kirsty MacColl - Fairytale of New York
TTITLE10=Slade - Merry Xmas Everybody
TTITLE11=Shakin' Stevens - Merry Christmas Everyone
TTITLE12=Mud - Lonely This Christmas
TTITLE13=Flying Pickets - Only You
TTITLE14=Kate Bush - December Will Be Magic Again
TTITLE15=Freiheit - Keeping The Dream Alive
TTITLE16=Aled Jones - Walking In The Air
TTITLE17=Vanessa Williams - Have Yourself A Merry Little Christmas
TTITLE18=Love Unlimited - It May Be Winter Outside
TTITLE19=Scaffold - Lily The Pink
EXTD=
EXTT0=
EXTT1=
EXTT2=
EXTT3=
EXTT4=
EXTT5=
EXTT6=
EXTT7=
EXTT8=
EXTT9=
EXTT10=
EXTT11=
EXTT12=
EXTT13=
EXTT14=
EXTT15=
EXTT16=
EXTT17=
EXTT18=
EXTT19=
PLAYORDER=
